<mxfile host="Electron" modified="2024-05-07T07:25:30.181Z" agent="Mozilla/5.0 (Windows NT 10.0; Win64; x64) AppleWebKit/537.36 (KHTML, like Gecko) draw.io/24.0.4 Chrome/120.0.6099.109 Electron/28.1.0 Safari/537.36" etag="o_82ugL7HnG9M3ncoj0n" version="24.0.4" type="device">
  <diagram name="architecture" id="YR5iKbu3JTdBkgbf3j1f">
    <mxGraphModel dx="1818" dy="1220" grid="1" gridSize="10" guides="1" tooltips="1" connect="1" arrows="1" fold="1" page="0" pageScale="1" pageWidth="850" pageHeight="1100" math="0" shadow="0">
      <root>
        <mxCell id="0" />
        <mxCell id="1" parent="0" />
        <mxCell id="X4Tq8y4ZzUAh-SKX8H5G-19" value="" style="rounded=1;whiteSpace=wrap;html=1;strokeColor=none;shadow=0;textShadow=0;fillColor=none;arcSize=2;" parent="1" vertex="1">
          <mxGeometry x="90" y="-30" width="630" height="580" as="geometry" />
        </mxCell>
        <mxCell id="X4Tq8y4ZzUAh-SKX8H5G-46" value="" style="rounded=1;whiteSpace=wrap;html=1;strokeColor=none;shadow=0;textShadow=0;fillColor=#F2F2F2;arcSize=4;" parent="1" vertex="1">
          <mxGeometry x="520" y="140" width="190" height="390" as="geometry" />
        </mxCell>
        <mxCell id="X4Tq8y4ZzUAh-SKX8H5G-45" value="" style="rounded=1;whiteSpace=wrap;html=1;strokeColor=none;shadow=0;textShadow=0;fillColor=#F2F2F2;fontColor=#333333;arcSize=4;" parent="1" vertex="1">
          <mxGeometry x="310" y="140" width="190" height="390" as="geometry" />
        </mxCell>
        <mxCell id="X4Tq8y4ZzUAh-SKX8H5G-44" value="" style="rounded=1;whiteSpace=wrap;html=1;strokeColor=none;shadow=0;textShadow=0;fillColor=#F2F2F2;arcSize=4;" parent="1" vertex="1">
          <mxGeometry x="100" y="140" width="190" height="390" as="geometry" />
        </mxCell>
        <mxCell id="X4Tq8y4ZzUAh-SKX8H5G-18" value="" style="rounded=0;whiteSpace=wrap;html=1;strokeColor=none;shadow=0;textShadow=0;fillColor=none;arcSize=2;" parent="1" vertex="1">
          <mxGeometry x="-167.5" y="130" width="240" height="420" as="geometry" />
        </mxCell>
        <mxCell id="X4Tq8y4ZzUAh-SKX8H5G-1" value="Energi Data - Prices API" style="image;aspect=fixed;html=1;points=[];align=center;fontSize=12;image=img/lib/azure2/app_services/API_Management_Services.svg;fontStyle=0;labelBackgroundColor=none;" parent="1" vertex="1">
          <mxGeometry x="-80" y="320" width="65" height="60" as="geometry" />
        </mxCell>
        <mxCell id="X4Tq8y4ZzUAh-SKX8H5G-2" value="DMI Weather API" style="image;aspect=fixed;html=1;points=[];align=center;fontSize=12;image=img/lib/azure2/app_services/API_Management_Services.svg;fontStyle=0;labelBackgroundColor=none;" parent="1" vertex="1">
          <mxGeometry x="-80" y="440" width="65" height="60" as="geometry" />
        </mxCell>
        <mxCell id="X4Tq8y4ZzUAh-SKX8H5G-3" value="Energi Data - Consumption API" style="image;aspect=fixed;html=1;points=[];align=center;fontSize=12;image=img/lib/azure2/app_services/API_Management_Services.svg;fontStyle=0;labelBackgroundColor=none;" parent="1" vertex="1">
          <mxGeometry x="-80" y="200" width="65" height="60" as="geometry" />
        </mxCell>
        <mxCell id="X4Tq8y4ZzUAh-SKX8H5G-5" value="Sqlite3 DB" style="image;aspect=fixed;html=1;points=[];align=center;fontSize=12;image=img/lib/azure2/databases/SQL_Database.svg;fontStyle=0;labelBackgroundColor=none;" parent="1" vertex="1">
          <mxGeometry x="381" y="20" width="48" height="64" as="geometry" />
        </mxCell>
        <mxCell id="X4Tq8y4ZzUAh-SKX8H5G-10" value="Bronze - Prices" style="shape=image;verticalLabelPosition=bottom;labelBackgroundColor=none;verticalAlign=top;aspect=fixed;imageAspect=0;image=data:image/svg+xml,PHN2ZyB4bWxuczp4bGluaz0iaHR0cDovL3d3dy53My5vcmcvMTk5OS94bGluayIgeG1sbnM9Imh0dHA6Ly93d3cudzMub3JnLzIwMDAvc3ZnIiB2ZXJzaW9uPSIxLjEiIHZpZXdCb3g9IjAgMCA2NCA2NCIgaGVpZ2h0PSI4MDBweCIgd2lkdGg9IjgwMHB4Ij4mI3hhOyAgICAmI3hhOyAgICA8dGl0bGU+ZGItdGFibGU8L3RpdGxlPiYjeGE7ICAgIDxkZXNjPkNyZWF0ZWQgd2l0aCBTa2V0Y2guPC9kZXNjPiYjeGE7ICAgIDxkZWZzPiYjeGE7JiN4YTs8L2RlZnM+JiN4YTsgICAgPGcgZmlsbC1ydWxlPSJldmVub2RkIiBmaWxsPSJub25lIiBzdHJva2Utd2lkdGg9IjEiIHN0cm9rZT0ibm9uZSIgaWQ9IjY0cHgtTGluZSI+JiN4YTsgICAgICAgIDxnIGlkPSJkYi10YWJsZSI+JiN4YTsmI3hhOzwvZz4mI3hhOyAgICAgICAgPHBhdGggZmlsbD0iIzAwMDAwMCIgaWQ9IlNoYXBlIiBkPSJNNTYsMTIgQzU2LDkuNzk0IDU0LjIwNiw4IDUyLDggTDEwLDggQzcuNzk0LDggNiw5Ljc5NCA2LDEyIEw2LDU0IEM2LDU2LjIwNiA3Ljc5NCw1OCAxMCw1OCBMNTIsNTggQzU0LjIwNiw1OCA1Niw1Ni4yMDYgNTYsNTQgTDU2LDEyIEw1NiwxMiBaIE0zMCwyMiBMMzAsMzIgTDIwLDMyIEwyMCwyMiBMMzAsMjIgTDMwLDIyIFogTTQyLDIyIEw0MiwzMiBMMzIsMzIgTDMyLDIyIEw0MiwyMiBMNDIsMjIgWiBNNTQsMjIgTDU0LDMyIEw0NCwzMiBMNDQsMjIgTDU0LDIyIEw1NCwyMiBaIE0xOCwzMiBMOCwzMiBMOCwyMiBMMTgsMjIgTDE4LDMyIEwxOCwzMiBaIE04LDM0IEwxOCwzNCBMMTgsNDQgTDgsNDQgTDgsMzQgTDgsMzQgWiBNMjAsMzQgTDMwLDM0IEwzMCw0NCBMMjAsNDQgTDIwLDM0IEwyMCwzNCBaIE0zMCw0NiBMMzAsNTYgTDIwLDU2IEwyMCw0NiBMMzAsNDYgTDMwLDQ2IFogTTMyLDQ2IEw0Miw0NiBMNDIsNTYgTDMyLDU2IEwzMiw0NiBMMzIsNDYgWiBNMzIsNDQgTDMyLDM0IEw0MiwzNCBMNDIsNDQgTDMyLDQ0IEwzMiw0NCBaIE00NCwzNCBMNTQsMzQgTDU0LDQ0IEw0NCw0NCBMNDQsMzQgTDQ0LDM0IFogTTEwLDEwIEw1MiwxMCBDNTMuMTAzLDEwIDU0LDEwLjg5NyA1NCwxMiBMNTQsMjAgTDgsMjAgTDgsMTIgQzgsMTAuODk3IDguODk3LDEwIDEwLDEwIEwxMCwxMCBaIE04LDU0IEw4LDQ2IEwxOCw0NiBMMTgsNTYgTDEwLDU2IEM4Ljg5Nyw1NiA4LDU1LjEwMyA4LDU0IEw4LDU0IFogTTUyLDU2IEw0NCw1NiBMNDQsNDYgTDU0LDQ2IEw1NCw1NCBDNTQsNTUuMTAzIDUzLjEwMyw1NiA1Miw1NiBMNTIsNTYgWiI+JiN4YTsmI3hhOzwvcGF0aD4mI3hhOyAgICA8L2c+JiN4YTs8L3N2Zz4=;fontStyle=0" parent="1" vertex="1">
          <mxGeometry x="165" y="320" width="60" height="60" as="geometry" />
        </mxCell>
        <mxCell id="X4Tq8y4ZzUAh-SKX8H5G-11" value="Bronze - Consumption" style="shape=image;verticalLabelPosition=bottom;labelBackgroundColor=none;verticalAlign=top;aspect=fixed;imageAspect=0;image=data:image/svg+xml,PHN2ZyB4bWxuczp4bGluaz0iaHR0cDovL3d3dy53My5vcmcvMTk5OS94bGluayIgeG1sbnM9Imh0dHA6Ly93d3cudzMub3JnLzIwMDAvc3ZnIiB2ZXJzaW9uPSIxLjEiIHZpZXdCb3g9IjAgMCA2NCA2NCIgaGVpZ2h0PSI4MDBweCIgd2lkdGg9IjgwMHB4Ij4mI3hhOyAgICAmI3hhOyAgICA8dGl0bGU+ZGItdGFibGU8L3RpdGxlPiYjeGE7ICAgIDxkZXNjPkNyZWF0ZWQgd2l0aCBTa2V0Y2guPC9kZXNjPiYjeGE7ICAgIDxkZWZzPiYjeGE7JiN4YTs8L2RlZnM+JiN4YTsgICAgPGcgZmlsbC1ydWxlPSJldmVub2RkIiBmaWxsPSJub25lIiBzdHJva2Utd2lkdGg9IjEiIHN0cm9rZT0ibm9uZSIgaWQ9IjY0cHgtTGluZSI+JiN4YTsgICAgICAgIDxnIGlkPSJkYi10YWJsZSI+JiN4YTsmI3hhOzwvZz4mI3hhOyAgICAgICAgPHBhdGggZmlsbD0iIzAwMDAwMCIgaWQ9IlNoYXBlIiBkPSJNNTYsMTIgQzU2LDkuNzk0IDU0LjIwNiw4IDUyLDggTDEwLDggQzcuNzk0LDggNiw5Ljc5NCA2LDEyIEw2LDU0IEM2LDU2LjIwNiA3Ljc5NCw1OCAxMCw1OCBMNTIsNTggQzU0LjIwNiw1OCA1Niw1Ni4yMDYgNTYsNTQgTDU2LDEyIEw1NiwxMiBaIE0zMCwyMiBMMzAsMzIgTDIwLDMyIEwyMCwyMiBMMzAsMjIgTDMwLDIyIFogTTQyLDIyIEw0MiwzMiBMMzIsMzIgTDMyLDIyIEw0MiwyMiBMNDIsMjIgWiBNNTQsMjIgTDU0LDMyIEw0NCwzMiBMNDQsMjIgTDU0LDIyIEw1NCwyMiBaIE0xOCwzMiBMOCwzMiBMOCwyMiBMMTgsMjIgTDE4LDMyIEwxOCwzMiBaIE04LDM0IEwxOCwzNCBMMTgsNDQgTDgsNDQgTDgsMzQgTDgsMzQgWiBNMjAsMzQgTDMwLDM0IEwzMCw0NCBMMjAsNDQgTDIwLDM0IEwyMCwzNCBaIE0zMCw0NiBMMzAsNTYgTDIwLDU2IEwyMCw0NiBMMzAsNDYgTDMwLDQ2IFogTTMyLDQ2IEw0Miw0NiBMNDIsNTYgTDMyLDU2IEwzMiw0NiBMMzIsNDYgWiBNMzIsNDQgTDMyLDM0IEw0MiwzNCBMNDIsNDQgTDMyLDQ0IEwzMiw0NCBaIE00NCwzNCBMNTQsMzQgTDU0LDQ0IEw0NCw0NCBMNDQsMzQgTDQ0LDM0IFogTTEwLDEwIEw1MiwxMCBDNTMuMTAzLDEwIDU0LDEwLjg5NyA1NCwxMiBMNTQsMjAgTDgsMjAgTDgsMTIgQzgsMTAuODk3IDguODk3LDEwIDEwLDEwIEwxMCwxMCBaIE04LDU0IEw4LDQ2IEwxOCw0NiBMMTgsNTYgTDEwLDU2IEM4Ljg5Nyw1NiA4LDU1LjEwMyA4LDU0IEw4LDU0IFogTTUyLDU2IEw0NCw1NiBMNDQsNDYgTDU0LDQ2IEw1NCw1NCBDNTQsNTUuMTAzIDUzLjEwMyw1NiA1Miw1NiBMNTIsNTYgWiI+JiN4YTsmI3hhOzwvcGF0aD4mI3hhOyAgICA8L2c+JiN4YTs8L3N2Zz4=;fontStyle=0;imageBackground=none;fillStyle=solid;" parent="1" vertex="1">
          <mxGeometry x="165" y="200" width="60" height="60" as="geometry" />
        </mxCell>
        <mxCell id="X4Tq8y4ZzUAh-SKX8H5G-12" value="Bronze - Weather" style="shape=image;verticalLabelPosition=bottom;labelBackgroundColor=none;verticalAlign=top;aspect=fixed;imageAspect=0;image=data:image/svg+xml,PHN2ZyB4bWxuczp4bGluaz0iaHR0cDovL3d3dy53My5vcmcvMTk5OS94bGluayIgeG1sbnM9Imh0dHA6Ly93d3cudzMub3JnLzIwMDAvc3ZnIiB2ZXJzaW9uPSIxLjEiIHZpZXdCb3g9IjAgMCA2NCA2NCIgaGVpZ2h0PSI4MDBweCIgd2lkdGg9IjgwMHB4Ij4mI3hhOyAgICAmI3hhOyAgICA8dGl0bGU+ZGItdGFibGU8L3RpdGxlPiYjeGE7ICAgIDxkZXNjPkNyZWF0ZWQgd2l0aCBTa2V0Y2guPC9kZXNjPiYjeGE7ICAgIDxkZWZzPiYjeGE7JiN4YTs8L2RlZnM+JiN4YTsgICAgPGcgZmlsbC1ydWxlPSJldmVub2RkIiBmaWxsPSJub25lIiBzdHJva2Utd2lkdGg9IjEiIHN0cm9rZT0ibm9uZSIgaWQ9IjY0cHgtTGluZSI+JiN4YTsgICAgICAgIDxnIGlkPSJkYi10YWJsZSI+JiN4YTsmI3hhOzwvZz4mI3hhOyAgICAgICAgPHBhdGggZmlsbD0iIzAwMDAwMCIgaWQ9IlNoYXBlIiBkPSJNNTYsMTIgQzU2LDkuNzk0IDU0LjIwNiw4IDUyLDggTDEwLDggQzcuNzk0LDggNiw5Ljc5NCA2LDEyIEw2LDU0IEM2LDU2LjIwNiA3Ljc5NCw1OCAxMCw1OCBMNTIsNTggQzU0LjIwNiw1OCA1Niw1Ni4yMDYgNTYsNTQgTDU2LDEyIEw1NiwxMiBaIE0zMCwyMiBMMzAsMzIgTDIwLDMyIEwyMCwyMiBMMzAsMjIgTDMwLDIyIFogTTQyLDIyIEw0MiwzMiBMMzIsMzIgTDMyLDIyIEw0MiwyMiBMNDIsMjIgWiBNNTQsMjIgTDU0LDMyIEw0NCwzMiBMNDQsMjIgTDU0LDIyIEw1NCwyMiBaIE0xOCwzMiBMOCwzMiBMOCwyMiBMMTgsMjIgTDE4LDMyIEwxOCwzMiBaIE04LDM0IEwxOCwzNCBMMTgsNDQgTDgsNDQgTDgsMzQgTDgsMzQgWiBNMjAsMzQgTDMwLDM0IEwzMCw0NCBMMjAsNDQgTDIwLDM0IEwyMCwzNCBaIE0zMCw0NiBMMzAsNTYgTDIwLDU2IEwyMCw0NiBMMzAsNDYgTDMwLDQ2IFogTTMyLDQ2IEw0Miw0NiBMNDIsNTYgTDMyLDU2IEwzMiw0NiBMMzIsNDYgWiBNMzIsNDQgTDMyLDM0IEw0MiwzNCBMNDIsNDQgTDMyLDQ0IEwzMiw0NCBaIE00NCwzNCBMNTQsMzQgTDU0LDQ0IEw0NCw0NCBMNDQsMzQgTDQ0LDM0IFogTTEwLDEwIEw1MiwxMCBDNTMuMTAzLDEwIDU0LDEwLjg5NyA1NCwxMiBMNTQsMjAgTDgsMjAgTDgsMTIgQzgsMTAuODk3IDguODk3LDEwIDEwLDEwIEwxMCwxMCBaIE04LDU0IEw4LDQ2IEwxOCw0NiBMMTgsNTYgTDEwLDU2IEM4Ljg5Nyw1NiA4LDU1LjEwMyA4LDU0IEw4LDU0IFogTTUyLDU2IEw0NCw1NiBMNDQsNDYgTDU0LDQ2IEw1NCw1NCBDNTQsNTUuMTAzIDUzLjEwMyw1NiA1Miw1NiBMNTIsNTYgWiI+JiN4YTsmI3hhOzwvcGF0aD4mI3hhOyAgICA8L2c+JiN4YTs8L3N2Zz4=;fontStyle=0" parent="1" vertex="1">
          <mxGeometry x="165" y="440" width="60" height="60" as="geometry" />
        </mxCell>
        <mxCell id="X4Tq8y4ZzUAh-SKX8H5G-13" value="Silver - Prices" style="shape=image;verticalLabelPosition=bottom;labelBackgroundColor=none;verticalAlign=top;aspect=fixed;imageAspect=0;image=data:image/svg+xml,PHN2ZyB4bWxuczp4bGluaz0iaHR0cDovL3d3dy53My5vcmcvMTk5OS94bGluayIgeG1sbnM9Imh0dHA6Ly93d3cudzMub3JnLzIwMDAvc3ZnIiB2ZXJzaW9uPSIxLjEiIHZpZXdCb3g9IjAgMCA2NCA2NCIgaGVpZ2h0PSI4MDBweCIgd2lkdGg9IjgwMHB4Ij4mI3hhOyAgICAmI3hhOyAgICA8dGl0bGU+ZGItdGFibGU8L3RpdGxlPiYjeGE7ICAgIDxkZXNjPkNyZWF0ZWQgd2l0aCBTa2V0Y2guPC9kZXNjPiYjeGE7ICAgIDxkZWZzPiYjeGE7JiN4YTs8L2RlZnM+JiN4YTsgICAgPGcgZmlsbC1ydWxlPSJldmVub2RkIiBmaWxsPSJub25lIiBzdHJva2Utd2lkdGg9IjEiIHN0cm9rZT0ibm9uZSIgaWQ9IjY0cHgtTGluZSI+JiN4YTsgICAgICAgIDxnIGlkPSJkYi10YWJsZSI+JiN4YTsmI3hhOzwvZz4mI3hhOyAgICAgICAgPHBhdGggZmlsbD0iIzAwMDAwMCIgaWQ9IlNoYXBlIiBkPSJNNTYsMTIgQzU2LDkuNzk0IDU0LjIwNiw4IDUyLDggTDEwLDggQzcuNzk0LDggNiw5Ljc5NCA2LDEyIEw2LDU0IEM2LDU2LjIwNiA3Ljc5NCw1OCAxMCw1OCBMNTIsNTggQzU0LjIwNiw1OCA1Niw1Ni4yMDYgNTYsNTQgTDU2LDEyIEw1NiwxMiBaIE0zMCwyMiBMMzAsMzIgTDIwLDMyIEwyMCwyMiBMMzAsMjIgTDMwLDIyIFogTTQyLDIyIEw0MiwzMiBMMzIsMzIgTDMyLDIyIEw0MiwyMiBMNDIsMjIgWiBNNTQsMjIgTDU0LDMyIEw0NCwzMiBMNDQsMjIgTDU0LDIyIEw1NCwyMiBaIE0xOCwzMiBMOCwzMiBMOCwyMiBMMTgsMjIgTDE4LDMyIEwxOCwzMiBaIE04LDM0IEwxOCwzNCBMMTgsNDQgTDgsNDQgTDgsMzQgTDgsMzQgWiBNMjAsMzQgTDMwLDM0IEwzMCw0NCBMMjAsNDQgTDIwLDM0IEwyMCwzNCBaIE0zMCw0NiBMMzAsNTYgTDIwLDU2IEwyMCw0NiBMMzAsNDYgTDMwLDQ2IFogTTMyLDQ2IEw0Miw0NiBMNDIsNTYgTDMyLDU2IEwzMiw0NiBMMzIsNDYgWiBNMzIsNDQgTDMyLDM0IEw0MiwzNCBMNDIsNDQgTDMyLDQ0IEwzMiw0NCBaIE00NCwzNCBMNTQsMzQgTDU0LDQ0IEw0NCw0NCBMNDQsMzQgTDQ0LDM0IFogTTEwLDEwIEw1MiwxMCBDNTMuMTAzLDEwIDU0LDEwLjg5NyA1NCwxMiBMNTQsMjAgTDgsMjAgTDgsMTIgQzgsMTAuODk3IDguODk3LDEwIDEwLDEwIEwxMCwxMCBaIE04LDU0IEw4LDQ2IEwxOCw0NiBMMTgsNTYgTDEwLDU2IEM4Ljg5Nyw1NiA4LDU1LjEwMyA4LDU0IEw4LDU0IFogTTUyLDU2IEw0NCw1NiBMNDQsNDYgTDU0LDQ2IEw1NCw1NCBDNTQsNTUuMTAzIDUzLjEwMyw1NiA1Miw1NiBMNTIsNTYgWiI+JiN4YTsmI3hhOzwvcGF0aD4mI3hhOyAgICA8L2c+JiN4YTs8L3N2Zz4=;fontStyle=0" parent="1" vertex="1">
          <mxGeometry x="370" y="320" width="60" height="60" as="geometry" />
        </mxCell>
        <mxCell id="X4Tq8y4ZzUAh-SKX8H5G-14" value="Silver - Consumption" style="shape=image;verticalLabelPosition=bottom;labelBackgroundColor=none;verticalAlign=top;aspect=fixed;imageAspect=0;image=data:image/svg+xml,PHN2ZyB4bWxuczp4bGluaz0iaHR0cDovL3d3dy53My5vcmcvMTk5OS94bGluayIgeG1sbnM9Imh0dHA6Ly93d3cudzMub3JnLzIwMDAvc3ZnIiB2ZXJzaW9uPSIxLjEiIHZpZXdCb3g9IjAgMCA2NCA2NCIgaGVpZ2h0PSI4MDBweCIgd2lkdGg9IjgwMHB4Ij4mI3hhOyAgICAmI3hhOyAgICA8dGl0bGU+ZGItdGFibGU8L3RpdGxlPiYjeGE7ICAgIDxkZXNjPkNyZWF0ZWQgd2l0aCBTa2V0Y2guPC9kZXNjPiYjeGE7ICAgIDxkZWZzPiYjeGE7JiN4YTs8L2RlZnM+JiN4YTsgICAgPGcgZmlsbC1ydWxlPSJldmVub2RkIiBmaWxsPSJub25lIiBzdHJva2Utd2lkdGg9IjEiIHN0cm9rZT0ibm9uZSIgaWQ9IjY0cHgtTGluZSI+JiN4YTsgICAgICAgIDxnIGlkPSJkYi10YWJsZSI+JiN4YTsmI3hhOzwvZz4mI3hhOyAgICAgICAgPHBhdGggZmlsbD0iIzAwMDAwMCIgaWQ9IlNoYXBlIiBkPSJNNTYsMTIgQzU2LDkuNzk0IDU0LjIwNiw4IDUyLDggTDEwLDggQzcuNzk0LDggNiw5Ljc5NCA2LDEyIEw2LDU0IEM2LDU2LjIwNiA3Ljc5NCw1OCAxMCw1OCBMNTIsNTggQzU0LjIwNiw1OCA1Niw1Ni4yMDYgNTYsNTQgTDU2LDEyIEw1NiwxMiBaIE0zMCwyMiBMMzAsMzIgTDIwLDMyIEwyMCwyMiBMMzAsMjIgTDMwLDIyIFogTTQyLDIyIEw0MiwzMiBMMzIsMzIgTDMyLDIyIEw0MiwyMiBMNDIsMjIgWiBNNTQsMjIgTDU0LDMyIEw0NCwzMiBMNDQsMjIgTDU0LDIyIEw1NCwyMiBaIE0xOCwzMiBMOCwzMiBMOCwyMiBMMTgsMjIgTDE4LDMyIEwxOCwzMiBaIE04LDM0IEwxOCwzNCBMMTgsNDQgTDgsNDQgTDgsMzQgTDgsMzQgWiBNMjAsMzQgTDMwLDM0IEwzMCw0NCBMMjAsNDQgTDIwLDM0IEwyMCwzNCBaIE0zMCw0NiBMMzAsNTYgTDIwLDU2IEwyMCw0NiBMMzAsNDYgTDMwLDQ2IFogTTMyLDQ2IEw0Miw0NiBMNDIsNTYgTDMyLDU2IEwzMiw0NiBMMzIsNDYgWiBNMzIsNDQgTDMyLDM0IEw0MiwzNCBMNDIsNDQgTDMyLDQ0IEwzMiw0NCBaIE00NCwzNCBMNTQsMzQgTDU0LDQ0IEw0NCw0NCBMNDQsMzQgTDQ0LDM0IFogTTEwLDEwIEw1MiwxMCBDNTMuMTAzLDEwIDU0LDEwLjg5NyA1NCwxMiBMNTQsMjAgTDgsMjAgTDgsMTIgQzgsMTAuODk3IDguODk3LDEwIDEwLDEwIEwxMCwxMCBaIE04LDU0IEw4LDQ2IEwxOCw0NiBMMTgsNTYgTDEwLDU2IEM4Ljg5Nyw1NiA4LDU1LjEwMyA4LDU0IEw4LDU0IFogTTUyLDU2IEw0NCw1NiBMNDQsNDYgTDU0LDQ2IEw1NCw1NCBDNTQsNTUuMTAzIDUzLjEwMyw1NiA1Miw1NiBMNTIsNTYgWiI+JiN4YTsmI3hhOzwvcGF0aD4mI3hhOyAgICA8L2c+JiN4YTs8L3N2Zz4=;fontStyle=0" parent="1" vertex="1">
          <mxGeometry x="370" y="200" width="60" height="60" as="geometry" />
        </mxCell>
        <mxCell id="X4Tq8y4ZzUAh-SKX8H5G-15" value="Silver - Weather" style="shape=image;verticalLabelPosition=bottom;labelBackgroundColor=none;verticalAlign=top;aspect=fixed;imageAspect=0;image=data:image/svg+xml,PHN2ZyB4bWxuczp4bGluaz0iaHR0cDovL3d3dy53My5vcmcvMTk5OS94bGluayIgeG1sbnM9Imh0dHA6Ly93d3cudzMub3JnLzIwMDAvc3ZnIiB2ZXJzaW9uPSIxLjEiIHZpZXdCb3g9IjAgMCA2NCA2NCIgaGVpZ2h0PSI4MDBweCIgd2lkdGg9IjgwMHB4Ij4mI3hhOyAgICAmI3hhOyAgICA8dGl0bGU+ZGItdGFibGU8L3RpdGxlPiYjeGE7ICAgIDxkZXNjPkNyZWF0ZWQgd2l0aCBTa2V0Y2guPC9kZXNjPiYjeGE7ICAgIDxkZWZzPiYjeGE7JiN4YTs8L2RlZnM+JiN4YTsgICAgPGcgZmlsbC1ydWxlPSJldmVub2RkIiBmaWxsPSJub25lIiBzdHJva2Utd2lkdGg9IjEiIHN0cm9rZT0ibm9uZSIgaWQ9IjY0cHgtTGluZSI+JiN4YTsgICAgICAgIDxnIGlkPSJkYi10YWJsZSI+JiN4YTsmI3hhOzwvZz4mI3hhOyAgICAgICAgPHBhdGggZmlsbD0iIzAwMDAwMCIgaWQ9IlNoYXBlIiBkPSJNNTYsMTIgQzU2LDkuNzk0IDU0LjIwNiw4IDUyLDggTDEwLDggQzcuNzk0LDggNiw5Ljc5NCA2LDEyIEw2LDU0IEM2LDU2LjIwNiA3Ljc5NCw1OCAxMCw1OCBMNTIsNTggQzU0LjIwNiw1OCA1Niw1Ni4yMDYgNTYsNTQgTDU2LDEyIEw1NiwxMiBaIE0zMCwyMiBMMzAsMzIgTDIwLDMyIEwyMCwyMiBMMzAsMjIgTDMwLDIyIFogTTQyLDIyIEw0MiwzMiBMMzIsMzIgTDMyLDIyIEw0MiwyMiBMNDIsMjIgWiBNNTQsMjIgTDU0LDMyIEw0NCwzMiBMNDQsMjIgTDU0LDIyIEw1NCwyMiBaIE0xOCwzMiBMOCwzMiBMOCwyMiBMMTgsMjIgTDE4LDMyIEwxOCwzMiBaIE04LDM0IEwxOCwzNCBMMTgsNDQgTDgsNDQgTDgsMzQgTDgsMzQgWiBNMjAsMzQgTDMwLDM0IEwzMCw0NCBMMjAsNDQgTDIwLDM0IEwyMCwzNCBaIE0zMCw0NiBMMzAsNTYgTDIwLDU2IEwyMCw0NiBMMzAsNDYgTDMwLDQ2IFogTTMyLDQ2IEw0Miw0NiBMNDIsNTYgTDMyLDU2IEwzMiw0NiBMMzIsNDYgWiBNMzIsNDQgTDMyLDM0IEw0MiwzNCBMNDIsNDQgTDMyLDQ0IEwzMiw0NCBaIE00NCwzNCBMNTQsMzQgTDU0LDQ0IEw0NCw0NCBMNDQsMzQgTDQ0LDM0IFogTTEwLDEwIEw1MiwxMCBDNTMuMTAzLDEwIDU0LDEwLjg5NyA1NCwxMiBMNTQsMjAgTDgsMjAgTDgsMTIgQzgsMTAuODk3IDguODk3LDEwIDEwLDEwIEwxMCwxMCBaIE04LDU0IEw4LDQ2IEwxOCw0NiBMMTgsNTYgTDEwLDU2IEM4Ljg5Nyw1NiA4LDU1LjEwMyA4LDU0IEw4LDU0IFogTTUyLDU2IEw0NCw1NiBMNDQsNDYgTDU0LDQ2IEw1NCw1NCBDNTQsNTUuMTAzIDUzLjEwMyw1NiA1Miw1NiBMNTIsNTYgWiI+JiN4YTsmI3hhOzwvcGF0aD4mI3hhOyAgICA8L2c+JiN4YTs8L3N2Zz4=;fontStyle=0" parent="1" vertex="1">
          <mxGeometry x="370" y="440" width="60" height="60" as="geometry" />
        </mxCell>
        <mxCell id="X4Tq8y4ZzUAh-SKX8H5G-16" value="Gold - CPW" style="shape=image;verticalLabelPosition=bottom;labelBackgroundColor=none;verticalAlign=top;aspect=fixed;imageAspect=0;image=data:image/svg+xml,PHN2ZyB4bWxuczp4bGluaz0iaHR0cDovL3d3dy53My5vcmcvMTk5OS94bGluayIgeG1sbnM9Imh0dHA6Ly93d3cudzMub3JnLzIwMDAvc3ZnIiB2ZXJzaW9uPSIxLjEiIHZpZXdCb3g9IjAgMCA2NCA2NCIgaGVpZ2h0PSI4MDBweCIgd2lkdGg9IjgwMHB4Ij4mI3hhOyAgICAmI3hhOyAgICA8dGl0bGU+ZGItdGFibGU8L3RpdGxlPiYjeGE7ICAgIDxkZXNjPkNyZWF0ZWQgd2l0aCBTa2V0Y2guPC9kZXNjPiYjeGE7ICAgIDxkZWZzPiYjeGE7JiN4YTs8L2RlZnM+JiN4YTsgICAgPGcgZmlsbC1ydWxlPSJldmVub2RkIiBmaWxsPSJub25lIiBzdHJva2Utd2lkdGg9IjEiIHN0cm9rZT0ibm9uZSIgaWQ9IjY0cHgtTGluZSI+JiN4YTsgICAgICAgIDxnIGlkPSJkYi10YWJsZSI+JiN4YTsmI3hhOzwvZz4mI3hhOyAgICAgICAgPHBhdGggZmlsbD0iIzAwMDAwMCIgaWQ9IlNoYXBlIiBkPSJNNTYsMTIgQzU2LDkuNzk0IDU0LjIwNiw4IDUyLDggTDEwLDggQzcuNzk0LDggNiw5Ljc5NCA2LDEyIEw2LDU0IEM2LDU2LjIwNiA3Ljc5NCw1OCAxMCw1OCBMNTIsNTggQzU0LjIwNiw1OCA1Niw1Ni4yMDYgNTYsNTQgTDU2LDEyIEw1NiwxMiBaIE0zMCwyMiBMMzAsMzIgTDIwLDMyIEwyMCwyMiBMMzAsMjIgTDMwLDIyIFogTTQyLDIyIEw0MiwzMiBMMzIsMzIgTDMyLDIyIEw0MiwyMiBMNDIsMjIgWiBNNTQsMjIgTDU0LDMyIEw0NCwzMiBMNDQsMjIgTDU0LDIyIEw1NCwyMiBaIE0xOCwzMiBMOCwzMiBMOCwyMiBMMTgsMjIgTDE4LDMyIEwxOCwzMiBaIE04LDM0IEwxOCwzNCBMMTgsNDQgTDgsNDQgTDgsMzQgTDgsMzQgWiBNMjAsMzQgTDMwLDM0IEwzMCw0NCBMMjAsNDQgTDIwLDM0IEwyMCwzNCBaIE0zMCw0NiBMMzAsNTYgTDIwLDU2IEwyMCw0NiBMMzAsNDYgTDMwLDQ2IFogTTMyLDQ2IEw0Miw0NiBMNDIsNTYgTDMyLDU2IEwzMiw0NiBMMzIsNDYgWiBNMzIsNDQgTDMyLDM0IEw0MiwzNCBMNDIsNDQgTDMyLDQ0IEwzMiw0NCBaIE00NCwzNCBMNTQsMzQgTDU0LDQ0IEw0NCw0NCBMNDQsMzQgTDQ0LDM0IFogTTEwLDEwIEw1MiwxMCBDNTMuMTAzLDEwIDU0LDEwLjg5NyA1NCwxMiBMNTQsMjAgTDgsMjAgTDgsMTIgQzgsMTAuODk3IDguODk3LDEwIDEwLDEwIEwxMCwxMCBaIE04LDU0IEw4LDQ2IEwxOCw0NiBMMTgsNTYgTDEwLDU2IEM4Ljg5Nyw1NiA4LDU1LjEwMyA4LDU0IEw4LDU0IFogTTUyLDU2IEw0NCw1NiBMNDQsNDYgTDU0LDQ2IEw1NCw1NCBDNTQsNTUuMTAzIDUzLjEwMyw1NiA1Miw1NiBMNTIsNTYgWiI+JiN4YTsmI3hhOzwvcGF0aD4mI3hhOyAgICA8L2c+JiN4YTs8L3N2Zz4=;fontStyle=0" parent="1" vertex="1">
          <mxGeometry x="580" y="320" width="60" height="60" as="geometry" />
        </mxCell>
        <mxCell id="X4Tq8y4ZzUAh-SKX8H5G-21" value="" style="endArrow=none;dashed=1;html=1;dashPattern=1 3;strokeWidth=2;rounded=0;entryX=0.305;entryY=0.204;entryDx=0;entryDy=0;entryPerimeter=0;" parent="1" edge="1">
          <mxGeometry width="50" height="50" relative="1" as="geometry">
            <mxPoint x="300.55" y="520" as="sourcePoint" />
            <mxPoint x="300.00000000000006" y="149.95999999999992" as="targetPoint" />
          </mxGeometry>
        </mxCell>
        <mxCell id="X4Tq8y4ZzUAh-SKX8H5G-23" value="Bronze" style="text;html=1;align=center;verticalAlign=middle;whiteSpace=wrap;rounded=0;fontStyle=1;fontSize=12;strokeColor=none;" parent="1" vertex="1">
          <mxGeometry x="135" y="150" width="120" height="30" as="geometry" />
        </mxCell>
        <mxCell id="X4Tq8y4ZzUAh-SKX8H5G-25" value="Gold" style="text;html=1;align=center;verticalAlign=middle;whiteSpace=wrap;rounded=0;fontStyle=1;fontSize=12;" parent="1" vertex="1">
          <mxGeometry x="550" y="150" width="120" height="30" as="geometry" />
        </mxCell>
        <mxCell id="X4Tq8y4ZzUAh-SKX8H5G-26" value="" style="endArrow=none;dashed=1;html=1;dashPattern=1 3;strokeWidth=2;rounded=0;entryX=0.305;entryY=0.204;entryDx=0;entryDy=0;entryPerimeter=0;" parent="1" edge="1">
          <mxGeometry width="50" height="50" relative="1" as="geometry">
            <mxPoint x="509.67" y="520" as="sourcePoint" />
            <mxPoint x="509.17" y="150" as="targetPoint" />
          </mxGeometry>
        </mxCell>
        <mxCell id="X4Tq8y4ZzUAh-SKX8H5G-27" value="External data sources" style="text;html=1;align=center;verticalAlign=middle;whiteSpace=wrap;rounded=0;fontStyle=1;fontSize=16;fontColor=#004C99;" parent="1" vertex="1">
          <mxGeometry x="-140.63" y="140" width="186.25" height="30" as="geometry" />
        </mxCell>
        <mxCell id="X4Tq8y4ZzUAh-SKX8H5G-28" value="Database" style="text;html=1;align=center;verticalAlign=middle;whiteSpace=wrap;rounded=0;fontStyle=1;fontSize=16;fontColor=#004C99;" parent="1" vertex="1">
          <mxGeometry x="326.25" y="-20" width="157.5" height="30" as="geometry" />
        </mxCell>
        <mxCell id="X4Tq8y4ZzUAh-SKX8H5G-31" value="" style="endArrow=classic;html=1;rounded=0;" parent="1" edge="1">
          <mxGeometry width="50" height="50" relative="1" as="geometry">
            <mxPoint x="30" y="229.57999999999998" as="sourcePoint" />
            <mxPoint x="140" y="229.57999999999998" as="targetPoint" />
          </mxGeometry>
        </mxCell>
        <mxCell id="X4Tq8y4ZzUAh-SKX8H5G-32" value="" style="endArrow=classic;html=1;rounded=0;" parent="1" edge="1">
          <mxGeometry width="50" height="50" relative="1" as="geometry">
            <mxPoint x="240" y="229.57999999999998" as="sourcePoint" />
            <mxPoint x="350" y="229.57999999999998" as="targetPoint" />
          </mxGeometry>
        </mxCell>
        <mxCell id="X4Tq8y4ZzUAh-SKX8H5G-33" value="" style="endArrow=classic;html=1;rounded=0;" parent="1" edge="1">
          <mxGeometry width="50" height="50" relative="1" as="geometry">
            <mxPoint x="30" y="349.58" as="sourcePoint" />
            <mxPoint x="140" y="349.58" as="targetPoint" />
          </mxGeometry>
        </mxCell>
        <mxCell id="X4Tq8y4ZzUAh-SKX8H5G-34" value="" style="endArrow=classic;html=1;rounded=0;" parent="1" edge="1">
          <mxGeometry width="50" height="50" relative="1" as="geometry">
            <mxPoint x="30" y="469.58" as="sourcePoint" />
            <mxPoint x="140" y="469.58" as="targetPoint" />
          </mxGeometry>
        </mxCell>
        <mxCell id="X4Tq8y4ZzUAh-SKX8H5G-35" value="" style="endArrow=classic;html=1;rounded=0;" parent="1" edge="1">
          <mxGeometry width="50" height="50" relative="1" as="geometry">
            <mxPoint x="240" y="349.58" as="sourcePoint" />
            <mxPoint x="350" y="349.58" as="targetPoint" />
          </mxGeometry>
        </mxCell>
        <mxCell id="X4Tq8y4ZzUAh-SKX8H5G-36" value="" style="endArrow=classic;html=1;rounded=0;" parent="1" edge="1">
          <mxGeometry width="50" height="50" relative="1" as="geometry">
            <mxPoint x="236" y="469.58" as="sourcePoint" />
            <mxPoint x="346" y="469.58" as="targetPoint" />
          </mxGeometry>
        </mxCell>
        <mxCell id="X4Tq8y4ZzUAh-SKX8H5G-38" value="" style="endArrow=classic;html=1;rounded=0;" parent="1" edge="1">
          <mxGeometry width="50" height="50" relative="1" as="geometry">
            <mxPoint x="448.75" y="230" as="sourcePoint" />
            <mxPoint x="558.75" y="340" as="targetPoint" />
          </mxGeometry>
        </mxCell>
        <mxCell id="X4Tq8y4ZzUAh-SKX8H5G-40" value="" style="endArrow=classic;html=1;rounded=0;" parent="1" edge="1">
          <mxGeometry width="50" height="50" relative="1" as="geometry">
            <mxPoint x="448.75" y="470" as="sourcePoint" />
            <mxPoint x="558.75" y="360" as="targetPoint" />
          </mxGeometry>
        </mxCell>
        <mxCell id="X4Tq8y4ZzUAh-SKX8H5G-41" value="" style="endArrow=classic;html=1;rounded=0;" parent="1" edge="1">
          <mxGeometry width="50" height="50" relative="1" as="geometry">
            <mxPoint x="448.75" y="349.58" as="sourcePoint" />
            <mxPoint x="558.75" y="349.58" as="targetPoint" />
          </mxGeometry>
        </mxCell>
        <mxCell id="X4Tq8y4ZzUAh-SKX8H5G-47" value="Silver" style="text;html=1;align=center;verticalAlign=middle;whiteSpace=wrap;rounded=0;fontStyle=1;fontSize=12;" parent="1" vertex="1">
          <mxGeometry x="340" y="150" width="120" height="30" as="geometry" />
        </mxCell>
        <mxCell id="X4Tq8y4ZzUAh-SKX8H5G-48" value="" style="rounded=1;whiteSpace=wrap;html=1;strokeColor=none;shadow=0;textShadow=0;fillColor=none;arcSize=2;" parent="1" vertex="1">
          <mxGeometry x="740" y="270" width="180" height="140" as="geometry" />
        </mxCell>
        <mxCell id="X4Tq8y4ZzUAh-SKX8H5G-49" value="Frontend" style="text;html=1;align=center;verticalAlign=middle;whiteSpace=wrap;rounded=0;fontStyle=1;fontSize=16;fontColor=#004C99;" parent="1" vertex="1">
          <mxGeometry x="751.25" y="280" width="157.5" height="30" as="geometry" />
        </mxCell>
        <mxCell id="X4Tq8y4ZzUAh-SKX8H5G-50" value="" style="shape=image;verticalLabelPosition=bottom;labelBackgroundColor=default;verticalAlign=top;aspect=fixed;imageAspect=0;image=data:image/svg+xml,PHN2ZyB4bWxucz0iaHR0cDovL3d3dy53My5vcmcvMjAwMC9zdmciIGZpbGw9Im5vbmUiIHZpZXdCb3g9IjAgMCAxMDkxIDYzOCIgaGVpZ2h0PSI2MzgiIHdpZHRoPSIxMDkxIj4mI3hhOzxwYXRoIGZpbGw9IiNGRjRCNEIiIGQ9Ik01NDUuNzMxIDIyMS41NDdMNDkzLjEzOSAxOTMuNzQ3TDQwMS44NDcgMTQ1LjQ5N0M0MDEuNzYzIDE0NS40MTMgNDAxLjU5NyAxNDUuNDEzIDQwMS41MTMgMTQ1LjQxM0MzOTguMTggMTQzLjgzIDM5NC43NjMgMTQ3LjE2MyAzOTYuMDEzIDE1MC40OTdMNDQyLjUzIDI2OS4xMzlMNDQyLjUzOSAyNjkuMTY0QzQ0Mi41ODkgMjY5LjI4IDQ0Mi42MyAyNjkuMzk3IDQ0Mi42OCAyNjkuNTE0QzQ0NC41ODkgMjczLjkzOSA0NDguNzU1IDI3Ni42NzIgNDUzLjI4OSAyNzcuNzQ3QzQ1My42NzIgMjc3LjgzIDQ1My45NDYgMjc3LjkwNiA0NTQuNDA2IDI3Ny45OThDNDU0Ljg2NCAyNzguMSA0NTUuNTA1IDI3OC4yMzkgNDU2LjA1NSAyNzguMjhDNDU2LjE0NyAyNzguMjg5IDQ1Ni4yMyAyNzguMjg5IDQ1Ni4zMjIgMjc4LjI5N0g0NTYuMzg5QzQ1Ni40NTUgMjc4LjMwNSA0NTYuNTIyIDI3OC4zMDUgNDU2LjU4OSAyNzguMzE0SDQ1Ni42OEM0NTYuNzM5IDI3OC4zMjIgNDU2LjgwNSAyNzguMzIyIDQ1Ni44NjQgMjc4LjMyMkg0NTYuOTcyQzQ1Ny4wMzkgMjc4LjMzIDQ1Ny4xMDUgMjc4LjMzIDQ1Ny4xNzIgMjc4LjMzVjI3OC4zM0M1MTYuMDg0IDI4NC43NTMgNTc1LjUxOSAyODQuNzUzIDYzNC40MzEgMjc4LjMzVjI3OC4zM0M2MzUuMTM5IDI3OC4zMyA2MzUuODMxIDI3OC4yOTcgNjM2LjQ5NyAyNzguMjNDNjM2LjcxNCAyNzguMjA1IDYzNi45MjIgMjc4LjE4IDYzNy4xMzEgMjc4LjE1NUM2MzcuMTU2IDI3OC4xNDcgNjM3LjE4OSAyNzguMTQ3IDYzNy4yMTQgMjc4LjEzOUM2MzcuMzU2IDI3OC4xMjIgNjM3LjQ5NyAyNzguMDk3IDYzNy42MzkgMjc4LjA3MkM2MzcuODQ3IDI3OC4wNDcgNjM4LjA1NiAyNzguMDA1IDYzOC4yNjQgMjc3Ljk2NEM2MzguNjgxIDI3Ny44NzIgNjM4Ljg3IDI3Ny44MDUgNjM5LjQzNiAyNzcuNjExQzY0MC4wMDEgMjc3LjQxNyA2NDAuOTQgMjc3LjA3NyA2NDEuNTI3IDI3Ni43OTRDNjQyLjExNSAyNzYuNTEgNjQyLjUyMiAyNzYuMjM5IDY0My4wMTQgMjc1LjkzQzY0My42MjIgMjc1LjU0NyA2NDQuMjAxIDI3NS4xNTUgNjQ0Ljc4OCAyNzQuNzE1QzY0NS4wNDEgMjc0LjUyMSA2NDUuMjE0IDI3NC4zOTcgNjQ1LjM5NyAyNzQuMjIyTDY0NS4yOTcgMjc0LjE2NEw1NDUuNzMxIDIyMS41NDdaIi8+JiN4YTs8cGF0aCBmaWxsPSIjN0QzNTNCIiBkPSJNNjg5Ljc2NiAxNDUuNDk4SDY4OS42ODNMNTk4LjM1NyAxOTMuNzQ4TDY0OS4xMjQgMjY5LjM1N0w2OTUuNTI0IDE1MC40OThWMTUwLjMzMUM2OTYuNjkxIDE0Ni44MzEgNjkzLjEwOCAxNDMuNjY1IDY4OS43NjYgMTQ1LjQ5OCIvPiYjeGE7PHBhdGggZmlsbD0iI0JENDA0MyIgZD0iTTU1MC41OTggMTIyLjU1NUM1NDguMjY0IDExOS4xNDcgNTQzLjE4MSAxMTkuMTQ3IDU0MC45MzEgMTIyLjU1NUw0OTMuMTM5IDE5My43NDdMNTQ1LjczMSAyMjEuNTQ3TDY0NS4zOTggMjc0LjIyMkM2NDYuMDI0IDI3My42MDkgNjQ2LjUyNiAyNzMuMDEyIDY0Ny4wNTYgMjcyLjM4MUM2NDcuODA2IDI3MS40NTYgNjQ4LjUwNiAyNzAuNDY0IDY0OS4xMjMgMjY5LjM1Nkw1OTguMzU2IDE5My43NDdMNTUwLjU5OCAxMjIuNTU1WiIvPiYjeGE7PHBhdGggZmlsbD0iIzI2MjczMCIgZD0iTTIxMy43MDUgMzk3LjI5M0gyMzIuMDk3QzIzMS4yNTQgMzczLjYxNCAyMDkuNDE0IDM1NS45MTIgMTc5LjA2NyAzNTUuOTEyQzE0OS4wMjggMzU1LjkxMiAxMjUuNDI1IDM3My4zODQgMTI1LjQyNSAzOTkuNzQ1QzEyNS40MjUgNDIwLjg5NiAxNDAuNzUxIDQzMy40NjQgMTY1LjI3MyA0NDAuNTE0TDE4NC41ODUgNDQ2LjAzMUMyMDEuMTM3IDQ1MC42MjkgMjE1Ljg1MSA0NTYuNDUzIDIxNS44NTEgNDcyLjA4NkMyMTUuODUxIDQ4OS4yNTIgMTk5LjI5OCA1MDAuNTkzIDE3Ny41MzUgNTAwLjU5M0MxNTguODM2IDUwMC41OTMgMTQyLjI4NCA0OTIuMzE3IDE0MC43NTEgNDc0LjUzOEgxMjEuMTMzQzEyMi45NzMgNTAwLjI4NyAxNDMuODE3IDUxNy43NTkgMTc3LjUzNSA1MTcuNzU5QzIxMy43MDUgNTE3Ljc1OSAyMzQuMjQyIDQ5Ny44MzQgMjM0LjI0MiA0NzIuMzkzQzIzNC4yNDIgNDQyLjk2NiAyMDYuMzQ4IDQzMy40NjQgMTkwLjEwMiA0MjkuMTcyTDE3NC4xNjMgNDI0Ljg4MUMxNjIuNTE1IDQyMS44MTUgMTQzLjgxNyA0MTUuNjg1IDE0My44MTcgMzk4LjgyNkMxNDMuODE3IDM4My44MDYgMTU3LjYxIDM3Mi43NzEgMTc4LjQ1NCAzNzIuNzcxQzE5Ny40NTkgMzcyLjc3MSAyMTEuODY2IDM4MS44MTQgMjEzLjcwNSAzOTcuMjkzWk0zMDkuOTExIDM5Ny4yOTNIMjg0Ljc3NlYzNjkuMDkzSDI2Ni42OTFWMzk3LjI5M0gyNDguOTEyVjQxMi42MkgyNjYuNjkxVjQ4Ni4xODZDMjY2LjY5MSA1MDYuNzI0IDI4My4yNDMgNTE2LjUzMyAyOTguNTcgNTE2LjUzM0MzMDUuMzEzIDUxNi41MzMgMzA5LjYwNSA1MTUuMzA3IDMxMi4wNTcgNTE0LjM4N0wzMDguMzc4IDQ5OC4xNDFDMzA2Ljg0NiA0OTguNDQ3IDMwNC4zOTQgNDk5LjA2MSAzMDAuNDA5IDQ5OS4wNjFDMjkyLjQzOSA0OTkuMDYxIDI4NC43NzYgNDk2LjYwOCAyODQuNzc2IDQ4MS4yODJWNDEyLjYySDMwOS45MTFWMzk3LjI5M1pNMzMyLjggNTE1SDM1MC44ODVWNDQwLjUxNEMzNTAuODg1IDQyNC41NzQgMzYzLjQ1MiA0MTIuOTI2IDM4MC42MTggNDEyLjkyNkMzODUuNDQ2IDQxMi45MjYgMzkwLjQyNyA0MTMuODQ2IDM5MS42NTMgNDE0LjE1MlYzOTUuNzYxQzM4OS41ODQgMzk1LjYwNyAzODQuODMzIDM5NS40NTQgMzgyLjE1MSAzOTUuNDU0QzM2OC4wNSAzOTUuNDU0IDM1NS43ODkgNDAzLjQyNCAzNTEuNDk4IDQxNS4wNzJIMzUwLjI3MlYzOTcuMjkzSDMzMi44VjUxNVpNNDU0LjU0MyA1MTcuNDUyQzQ3OC40NTMgNTE3LjQ1MiA0OTUuOTI1IDUwNS40OTggNTAxLjQ0MiA0ODcuNzE5TDQ4My45NyA0ODIuODE1QzQ3OS4zNzIgNDk1LjA3NiA0NjguNzIgNTAxLjIwNiA0NTQuNTQzIDUwMS4yMDZDNDMzLjMxNiA1MDEuMjA2IDQxOC42OCA0ODcuNDg5IDQxNy44MzcgNDYyLjI3N0g1MDMuMjgxVjQ1NC42MTRDNTAzLjI4MSA0MTAuNzggNDc3LjIyNiAzOTUuNzYxIDQ1Mi43MDQgMzk1Ljc2MUM0MjAuODI1IDM5NS43NjEgMzk5LjY3NSA0MjAuODk2IDM5OS42NzUgNDU3LjA2NkMzOTkuNjc1IDQ5My4yMzcgNDIwLjUxOSA1MTcuNDUyIDQ1NC41NDMgNTE3LjQ1MlpNNDE3LjgzNyA0NDYuNjQ0QzQxOS4wNjMgNDI4LjMyOSA0MzIuMDE0IDQxMi4wMDcgNDUyLjcwNCA0MTIuMDA3QzQ3Mi4zMjIgNDEyLjAwNyA0ODQuODkgNDI2LjcyIDQ4NC44OSA0NDYuNjQ0SDQxNy44MzdaTTU2MS4xMTQgNTE3Ljc1OUM1ODEuNjUxIDUxNy43NTkgNTkyLjM4IDUwNi43MjQgNTk2LjA1OCA0OTkuMDYxSDU5Ni45NzhWNTE1SDYxNS4wNjNWNDM3LjQ0OEM2MTUuMDYzIDQwMC4wNTIgNTg2LjU1NiAzOTUuNzYxIDU3MS41MzYgMzk1Ljc2MUM1NTMuNzU3IDM5NS43NjEgNTMzLjUyNiA0MDEuODkxIDUyNC4zMzEgNDIzLjM0OEw1NDEuNDk2IDQyOS40NzlDNTQ1LjQ4MSA0MjAuODk2IDU1NC45MDcgNDExLjcgNTcyLjE0OSA0MTEuN0M1ODguNzc4IDQxMS43IDU5Ni45NzggNDIwLjUxMyA1OTYuOTc4IDQzNS42MDlWNDM2LjIyMkM1OTYuOTc4IDQ0NC45NTggNTg4LjA4OCA0NDQuMTkyIDU2Ni42MzIgNDQ2Ljk1MUM1NDQuNzkxIDQ0OS43ODYgNTIwLjk1OSA0NTQuNjE0IDUyMC45NTkgNDgxLjU4OEM1MjAuOTU5IDUwNC41NzggNTM4LjczNyA1MTcuNzU5IDU2MS4xMTQgNTE3Ljc1OVpNNTYzLjg3MyA1MDEuNTEzQzU0OS40NjYgNTAxLjUxMyA1MzkuMDQ0IDQ5NS4wNzYgNTM5LjA0NCA0ODIuNTA4QzUzOS4wNDQgNDY4LjcxNCA1NTEuNjEyIDQ2NC40MjMgNTY1LjcxMiA0NjIuNTg0QzU3My4zNzUgNDYxLjY2NCA1OTMuOTEzIDQ1OS41MTggNTk2Ljk3OCA0NTUuODRWNDcyLjM5M0M1OTYuOTc4IDQ4Ny4xMDYgNTg1LjMzIDUwMS41MTMgNTYzLjg3MyA1MDEuNTEzWk02NDMuNzU2IDUxNUg2NjEuODQxVjQ0MS40MzNDNjYxLjg0MSA0MjQuMTkxIDY3NC40MDkgNDEyLjAwNyA2ODguNTA5IDQxMi4wMDdDNzAyLjIyNyA0MTIuMDA3IDcxMS44MDYgNDIwLjk3MiA3MTEuODA2IDQzNC4zODNWNTE1SDczMC4xOTdWNDM4LjM2OEM3MzAuMTk3IDQyMy4xOTUgNzM5LjcgNDEyLjAwNyA3NTYuMjUyIDQxMi4wMDdDNzY5LjEyNiA0MTIuMDA3IDc4MC4xNjEgNDE4LjgyNyA3ODAuMTYxIDQzNi4yMjJWNTE1SDc5OC4yNDZWNDM2LjIyMkM3OTguMjQ2IDQwOC41NTggNzgzLjM4IDM5NS43NjEgNzYyLjM4MyAzOTUuNzYxQzc0NS41MjQgMzk1Ljc2MSA3MzMuMTg2IDQwMy41IDcyNy4xMzIgNDE1LjY4NUg3MjUuOTA2QzcyMC4wODIgNDAzLjExNyA3MDkuODEzIDM5NS43NjEgNjk0LjMzMyAzOTUuNzYxQzY3OS4wMDcgMzk1Ljc2MSA2NjcuNjY1IDQwMy4xMTcgNjYyLjc2MSA0MTUuNjg1SDY2MS4yMjhWMzk3LjI5M0g2NDMuNzU2VjUxNVpNODQ1LjA4MiAzNTguMDU4SDgyNi45OTdWNTE1SDg0NS4wODJWMzU4LjA1OFpNODczLjg5MSA1MTVIODkxLjk3NlYzOTcuMjkzSDg3My44OTFWNTE1Wk04ODMuMDg3IDM3Ny42NzVDODkwLjEzNyAzNzcuNjc1IDg5NS45NjEgMzcyLjE1OCA4OTUuOTYxIDM2NS40MTRDODk1Ljk2MSAzNTguNjcxIDg5MC4xMzcgMzUzLjE1MyA4ODMuMDg3IDM1My4xNTNDODc2LjAzNiAzNTMuMTUzIDg3MC4yMTIgMzU4LjY3MSA4NzAuMjEyIDM2NS40MTRDODcwLjIxMiAzNzIuMTU4IDg3Ni4wMzYgMzc3LjY3NSA4ODMuMDg3IDM3Ny42NzVaTTk3MS45NzQgMzk3LjI5M0g5NDYuODM5VjM2OS4wOTNIOTI4Ljc1NFYzOTcuMjkzSDkxMC45NzVWNDEyLjYySDkyOC43NTRWNDg2LjE4NkM5MjguNzU0IDUwNi43MjQgOTQ1LjMwNiA1MTYuNTMzIDk2MC42MzMgNTE2LjUzM0M5NjcuMzc2IDUxNi41MzMgOTcxLjY2OCA1MTUuMzA3IDk3NC4xMiA1MTQuMzg3TDk3MC40NDIgNDk4LjE0MUM5NjguOTA5IDQ5OC40NDcgOTY2LjQ1NyA0OTkuMDYxIDk2Mi40NzIgNDk5LjA2MUM5NTQuNTAyIDQ5OS4wNjEgOTQ2LjgzOSA0OTYuNjA4IDk0Ni44MzkgNDgxLjI4MlY0MTIuNjJIOTcxLjk3NFYzOTcuMjkzWiIvPiYjeGE7PC9zdmc+;" parent="1" vertex="1">
          <mxGeometry x="778.7" y="320" width="102.6" height="60" as="geometry" />
        </mxCell>
        <mxCell id="X4Tq8y4ZzUAh-SKX8H5G-51" value="" style="endArrow=classic;html=1;rounded=0;" parent="1" edge="1">
          <mxGeometry width="50" height="50" relative="1" as="geometry">
            <mxPoint x="660" y="349.58" as="sourcePoint" />
            <mxPoint x="770" y="349.58" as="targetPoint" />
          </mxGeometry>
        </mxCell>
        <mxCell id="X4Tq8y4ZzUAh-SKX8H5G-52" value="" style="shape=curlyBracket;whiteSpace=wrap;html=1;rounded=1;labelPosition=left;verticalLabelPosition=middle;align=right;verticalAlign=middle;rotation=90;" parent="1" vertex="1">
          <mxGeometry x="396.52" y="-194.53" width="15" height="624.08" as="geometry" />
        </mxCell>
      </root>
    </mxGraphModel>
  </diagram>
</mxfile>
